<svg xmlns="http://www.w3.org/2000/svg" width="364.459" height="390.368" viewBox="0 0 364.459 390.368">
  <path id="blob_6_" data-name="blob (6)" d="M236.6-52.448c6.976,15.482-30.519,93.58-20.346,148.97s68.305,88.419,61.911,92.2c-6.1,3.44-76.444-21.675-112.485,5.849-35.751,27.523-36.914,108.373-46.215,121.1-9.01,12.386-25.869-43.005-71.212-67.088C2.9,224.851-71.214,232.42-66.563,217.282c4.941-15.138,88.651-52.639,130.506-76.377,41.564-23.739,40.983-33.372,44.471-49.886,3.779-16.514,11.336-39.909,40.692-75.689C178.463-20.108,229.619-67.586,236.6-52.448Z" transform="translate(83.295 58.76) rotate(3)" fill="#fbd657"/>
</svg>
