<svg xmlns="http://www.w3.org/2000/svg" width="594.104" height="554.666" viewBox="0 0 594.104 554.666">
  <path id="blob_5_" data-name="blob (5)" d="M226.053,15.121C271.116,31.362,350.933,19,392.461,37.18s44.474,67.146,18.85,101.082c-25.918,33.937-80.406,52.6-126.941,75.145s-85.118,48.966-115.16,39.269c-30.336-9.454-51.837-55.026-98.077-77.569-46.241-22.786-116.927-22.544-142.256-44.6-25.329-21.816-5.6-65.934,28.864-91.629C-8.1,12.939,40.8,5.667,77.023-13s60.083-48.723,76.871-40.966C170.977-46.45,180.991-1.12,226.053,15.121Z" transform="matrix(-0.799, 0.602, -0.602, -0.799, 494.911, 253.15)" fill="#f3f9f7"/>
</svg>
