<svg xmlns="http://www.w3.org/2000/svg" width="406" height="98.23" viewBox="0 0 406 98.23">
  <path id="wave" d="M0,20.307l6.767,1.706A288.578,288.578,0,0,0,40.6,28.9c13.533,1.706,27.067,1.706,40.6,5.149,13.533,3.315,27.067,10.395,40.6,10.3,13.533.1,27.067-6.983,40.6-1.738,13.533,5.052,27.067,22.43,40.6,22.334,13.533.1,27.067-17.281,40.6-29.188s27.067-18.987,40.6-20.6,27.067,1.609,40.6,10.3,27.067,22.2,40.6,25.745,27.067-3.54,33.833-6.855L406,40.9v72.086H0Z" transform="translate(0 -14.759)" fill="#f3f9f7"/>
</svg>
